<?xml version="1.0" encoding="iso-8859-1"?>
<!-- Generator: Adobe Illustrator 16.0.0, SVG Export Plug-In . SVG Version: 6.00 Build 0)  -->
<!DOCTYPE svg PUBLIC "-//W3C//DTD SVG 1.1//EN" "http://www.w3.org/Graphics/SVG/1.1/DTD/svg11.dtd">
<svg xmlns="http://www.w3.org/2000/svg" xmlns:xlink="http://www.w3.org/1999/xlink" version="1.1" id="Capa_1" x="0px" y="0px" width="512px" height="512px" viewBox="0 0 499.287 499.287" style="enable-background:new 0 0 499.287 499.287;" xml:space="preserve">
<g>
	<g>
		<g>
			<path d="M191.653,446.918c3.153,29.396,27.771,52.369,58,52.369c30.233,0,54.819-22.977,57.985-52.369     c-23.8,1.818-44.724,2.217-57.985,2.217C236.396,449.135,215.453,448.738,191.653,446.918z" fill="#2f3740"/>
			<path d="M399.103,278.842c-16.066-49.614-24.518-101.591-24.518-153.946C374.585,55.916,318.649,0,249.651,0     c-68.994,0-124.929,55.916-124.929,124.896c0,52.795-8.335,104.479-24.421,153.979c37.55,10.553,88.397,18.087,149.35,18.087     C310.641,296.961,361.521,289.413,399.103,278.842z" fill="#2f3740"/>
			<path d="M432.503,358.457c-8.208-15.592-15.409-31.659-21.927-47.973c-45.939,13.241-103.527,20.088-160.925,20.088     c-57.392,0-114.948-6.826-160.87-20.07c-6.53,16.246-13.736,32.281-21.976,47.938c-3.002,5.698-4.794,9.259-4.794,9.603     c0,26.212,84.016,47.479,187.64,47.479c103.628,0,187.625-21.269,187.625-47.479C437.278,367.697,435.49,364.137,432.503,358.457     z" fill="#2f3740"/>
		</g>
	</g>
</g>
<g>
</g>
<g>
</g>
<g>
</g>
<g>
</g>
<g>
</g>
<g>
</g>
<g>
</g>
<g>
</g>
<g>
</g>
<g>
</g>
<g>
</g>
<g>
</g>
<g>
</g>
<g>
</g>
<g>
</g>
</svg>
